<svg width="31" height="30" viewBox="0 0 31 30" fill="none" xmlns="http://www.w3.org/2000/svg">
<path d="M20.4805 10.002C21.8068 10.002 23.0788 9.47507 24.0167 8.5372C24.9546 7.59934 25.4814 6.32732 25.4814 5.00098C25.4814 3.67464 24.9546 2.40262 24.0167 1.46475C23.0788 0.526887 21.8068 0 20.4805 0L10.4785 0C9.15295 0 7.88168 0.526578 6.94436 1.46389C6.00705 2.40121 5.48047 3.67248 5.48047 4.99805C5.48047 6.32361 6.00705 7.59488 6.94436 8.5322C7.88168 9.46952 9.15295 9.99609 10.4785 9.99609C9.15218 9.99609 7.88016 10.523 6.94229 11.4608C6.00443 12.3987 5.47754 13.6707 5.47754 14.9971C5.47754 16.3234 6.00443 17.5954 6.94229 18.5333C7.88016 19.4712 9.15218 19.998 10.4785 19.998C9.48942 19.9975 8.52236 20.2902 7.69963 20.8392C6.8769 21.3883 6.23546 22.1689 5.85641 23.0825C5.47736 23.9961 5.37774 25.0016 5.57013 25.9718C5.76253 26.942 6.2383 27.8334 6.93729 28.5332C7.63628 29.233 8.52709 29.7098 9.49707 29.9033C10.4671 30.0969 11.4726 29.9984 12.3867 29.6204C13.3007 29.2425 14.0821 28.6019 14.6321 27.7799C15.1821 26.9578 15.476 25.9911 15.4766 25.002V10.002H20.4805ZM20.4805 10.002C19.492 10.002 18.5256 10.2951 17.7037 10.8443C16.8818 11.3935 16.2412 12.1741 15.8629 13.0873C15.4846 14.0006 15.3856 15.0055 15.5785 15.9751C15.7713 16.9446 16.2473 17.8352 16.9463 18.5342C17.6453 19.2331 18.5359 19.7092 19.5054 19.902C20.4749 20.0949 21.4799 19.9959 22.3931 19.6176C23.3064 19.2393 24.087 18.5987 24.6362 17.7768C25.1854 16.9548 25.4785 15.9885 25.4785 15C25.4784 13.6745 24.9517 12.4033 24.0145 11.466C23.0772 10.5287 21.806 10.0021 20.4805 10.002Z" fill="#0D3D38"/>
</svg>
