<svg width="31" height="30" viewBox="0 0 31 30" fill="none" xmlns="http://www.w3.org/2000/svg">
<g clip-path="url(#clip0_2174_181)">
<path d="M18.2875 15.0048C18.2875 15.7459 17.9932 16.4566 17.4693 16.9808C16.9454 17.5049 16.2348 17.7995 15.4937 17.7998C14.7525 17.7998 14.0416 17.5054 13.5174 16.9812C12.9932 16.457 12.6987 15.7461 12.6987 15.0048C12.6987 14.2638 12.9931 13.5531 13.5169 13.0289C14.0408 12.5048 14.7514 12.2102 15.4925 12.2098C16.2338 12.2098 16.9447 12.5043 17.4689 13.0285C17.993 13.5526 18.2875 14.2636 18.2875 15.0048ZM21.5975 1.64235C19.915 1.64235 17.7137 2.84235 15.4875 4.91985C13.2625 2.8536 11.06 1.66735 9.37875 1.66735C8.86625 1.66735 8.4 1.7836 7.99625 2.01485C6.2775 3.0061 5.8925 6.09485 6.78 9.9711C2.975 11.1461 0.5 13.0248 0.5 15.0048C0.5 16.9923 2.9875 18.8761 6.80375 20.0423C5.92375 23.9336 6.31625 27.0273 8.03875 28.0173C8.43875 28.2511 8.90125 28.3611 9.41625 28.3611C11.0975 28.3611 13.3 27.1611 15.5262 25.0811C17.7512 27.1486 19.9538 28.3348 21.635 28.3348C22.1475 28.3348 22.6138 28.2223 23.0175 27.9911C24.735 27.0011 25.1213 23.9123 24.2337 20.0348C28.025 18.8698 30.5 16.9873 30.5 15.0048C30.5 13.0173 28.0125 11.1336 24.1963 9.96485C25.0763 6.07735 24.6838 2.9811 22.9613 1.98985C22.5449 1.75567 22.0752 1.63578 21.5975 1.64235ZM21.5912 3.00485V3.01235C21.8725 3.01235 22.0987 3.06735 22.2887 3.1711C23.1213 3.6486 23.4825 5.46485 23.2012 7.8011C23.1337 8.3761 23.0237 8.98235 22.8887 9.6011C21.6106 9.29182 20.3131 9.06882 19.005 8.9336C18.226 7.85861 17.3762 6.83676 16.4613 5.87485C18.4513 4.02485 20.32 3.00985 21.5925 3.0061L21.5912 3.00485ZM9.37875 3.02985C10.6438 3.02985 12.5213 4.03985 14.5163 5.87985C13.6588 6.77985 12.8038 7.8011 11.9913 8.93235C10.6801 9.06599 9.37992 9.2907 8.1 9.60485C7.9658 9.01861 7.85984 8.42626 7.7825 7.82985C7.495 5.49485 7.85 3.67985 8.675 3.1961C8.9125 3.0836 9.175 3.0361 9.37875 3.02985ZM15.4812 6.84235C16.05 7.42735 16.6187 8.08235 17.1812 8.79735C16.6313 8.77235 16.0688 8.75485 15.5 8.75485C14.925 8.75485 14.3563 8.76735 13.8 8.79735C14.35 8.08235 14.9187 7.4286 15.4812 6.84235ZM15.5 10.1248C16.425 10.1248 17.3462 10.1673 18.2525 10.2411C18.76 10.9686 19.255 11.7448 19.7313 12.5661C20.1963 13.3661 20.6187 14.1786 21.0037 14.9986C20.6187 15.8173 20.1963 16.6361 19.7375 17.4361C19.2625 18.2611 18.7712 19.0461 18.2625 19.7736C16.4278 19.9341 14.5826 19.9362 12.7475 19.7798C12.2227 19.0256 11.7294 18.2499 11.2687 17.4548C10.8038 16.6548 10.3813 15.8423 9.99625 15.0223C10.3825 14.1901 10.805 13.3752 11.2625 12.5798C11.7375 11.7548 12.2288 10.9723 12.7375 10.2448C13.6561 10.1637 14.5778 10.1228 15.5 10.1223V10.1248ZM10.9562 10.4423C10.6562 10.9136 10.3562 11.3961 10.0763 11.8923C9.795 12.3798 9.5325 12.8698 9.2825 13.3598C8.95125 12.5398 8.67 11.7223 8.4375 10.9261C9.2375 10.7386 10.0813 10.5711 10.9562 10.4423ZM20.0312 10.4423C20.9 10.5711 21.7375 10.7298 22.5387 10.9261C22.3138 11.7161 22.0325 12.5286 21.7138 13.3423C21.2037 12.3474 20.6425 11.3794 20.0325 10.4423H20.0312ZM23.86 11.2861C24.465 11.4736 25.04 11.6823 25.5788 11.9086C27.7437 12.8336 29.1438 14.0436 29.1438 15.0036C29.1375 15.9636 27.7375 17.1786 25.5725 18.0973C25.0475 18.3223 24.4725 18.5248 23.8787 18.7136C23.5033 17.4429 23.044 16.1985 22.5037 14.9886C23.0662 13.7173 23.5162 12.4761 23.86 11.2836V11.2861ZM7.11625 11.2911C7.46375 12.4911 7.9225 13.7373 8.49125 15.0161C7.95495 16.2188 7.50139 17.4566 7.13375 18.7211C6.52875 18.5336 5.95375 18.3236 5.42125 18.0961C3.25625 17.1748 1.85625 15.9636 1.85625 15.0036C1.85625 14.0436 3.25625 12.8261 5.42125 11.9086C5.94625 11.6836 6.52125 11.4811 7.11625 11.2911ZM21.7138 16.6411C22.045 17.4623 22.3263 18.2811 22.5588 19.0761C21.7587 19.2723 20.9137 19.4386 20.0387 19.5636C20.648 18.6193 21.2063 17.6438 21.7138 16.6411ZM9.2825 16.6661C9.5325 17.1561 9.795 17.6448 10.0825 18.1348C10.37 18.6223 10.6638 19.0998 10.9638 19.5636C10.1209 19.4417 9.28416 19.2807 8.45625 19.0811C8.68125 18.2936 8.96375 17.4786 9.28125 16.6648L9.2825 16.6661ZM22.9 20.3998C23.04 21.0161 23.15 21.6098 23.2175 22.1786C23.505 24.5136 23.15 26.3286 22.325 26.8136C22.1412 26.9261 21.9025 26.9736 21.6213 26.9736C20.3562 26.9736 18.4788 25.9648 16.4837 24.1236C17.3412 23.2236 18.1963 22.2036 19.0088 21.0736C20.3925 20.9261 21.7013 20.6998 22.9 20.3998ZM8.1125 20.4123C9.3125 20.7048 10.62 20.9311 11.9962 21.0773C12.8212 22.2086 13.6775 23.2361 14.54 24.1348C12.5463 25.9886 10.675 27.0036 9.4025 27.0036C9.16211 27.0055 8.92486 26.9489 8.71125 26.8386C7.87875 26.3636 7.5175 24.5461 7.79875 22.2098C7.86625 21.6348 7.9775 21.0298 8.1125 20.4123ZM13.8125 21.2123C14.3625 21.2373 14.925 21.2548 15.4937 21.2548C16.0687 21.2548 16.6375 21.2423 17.1937 21.2123C16.6437 21.9273 16.075 22.5811 15.5125 23.1686C14.9438 22.5811 14.375 21.9273 13.8125 21.2123Z" fill="#0D3D38"/>
</g>
<defs>
<clipPath id="clip0_2174_181">
<rect width="30" height="30" fill="white" transform="translate(0.5)"/>
</clipPath>
</defs>
</svg>
