<svg width="31" height="30" viewBox="0 0 31 30" fill="none" xmlns="http://www.w3.org/2000/svg">
<g clip-path="url(#clip0_2174_219)">
<path d="M30.6612 29.2651L30.0262 28.6601C29.7235 28.2591 29.385 27.8863 29.015 27.5463L29.0087 27.5413C28.6354 27.2022 28.2475 26.8797 27.845 26.5738C27.5225 26.3521 27.0792 26.0851 26.515 25.7726C26.0572 25.5694 25.6923 25.2018 25.4925 24.7426L25.4875 24.7301L25.4275 24.7001C25.6925 24.6738 25.935 24.6251 26.1675 24.5563L26.1387 24.5638L26.8512 24.3676C27.1462 24.2751 27.4875 24.2151 27.8412 24.2013H27.8487C28.2212 24.1863 28.5725 24.1263 28.9075 24.0276L28.8762 24.0351C29.0379 23.9951 29.2042 23.9496 29.375 23.8988C29.5458 23.848 29.6921 23.8026 29.8137 23.7626V23.5513C29.6929 23.3705 29.5467 23.1638 29.375 22.9313C29.2158 22.7138 29.0297 22.5172 28.8212 22.3463L28.815 22.3413C28.2908 21.878 27.7479 21.4296 27.1862 20.9963C26.6597 20.5872 26.1127 20.205 25.5475 19.8513L25.4625 19.8013C25.1365 19.5882 24.7912 19.4062 24.4312 19.2576L24.3887 19.2426C24.0154 19.0909 23.6475 18.9246 23.285 18.7438C23.1544 18.6799 23.0174 18.63 22.8762 18.5951L22.8625 18.5926C22.7215 18.5645 22.5939 18.4902 22.5 18.3813L22.4987 18.3801C22.3214 18.1446 22.1725 17.8891 22.055 17.6188L22.045 17.5938C21.9242 17.3113 21.7933 17.0401 21.6525 16.7801C21.35 16.1951 21.0575 15.6005 20.775 14.9963C20.4925 14.3921 20.2212 13.7871 19.9612 13.1813C19.7804 12.778 19.6142 12.3751 19.4625 11.9726C19.3091 11.5623 19.1161 11.1679 18.8862 10.7951L18.9025 10.8238C18.4044 9.9698 17.8485 9.15081 17.2387 8.37257L17.2737 8.42006C16.7158 7.7134 16.1062 7.04907 15.45 6.43257L15.44 6.42382C14.7947 5.81835 14.1134 5.25232 13.4 4.72882L13.3387 4.68507C12.5921 4.14257 11.7754 3.6084 10.8887 3.08257C10.5119 2.86274 10.1057 2.69735 9.6825 2.59132L9.65 2.58382L8.25875 2.23632L7.4725 2.17632C7.21083 2.15632 6.94875 2.14632 6.68625 2.14632C6.50923 2.05367 6.34634 1.93624 6.2025 1.79757C6.06347 1.66532 5.91608 1.54215 5.76125 1.42882L5.74875 1.42007C4.93677 0.951517 4.08158 0.562222 3.195 0.257565L3.08875 0.225066C2.86826 0.0989177 2.62221 0.0239817 2.36884 0.00580609C2.11546 -0.0123695 1.86124 0.0266807 1.625 0.120066L1.63625 0.116316C1.40362 0.207543 1.19396 0.348931 1.0222 0.530416C0.850434 0.711901 0.720792 0.92902 0.642498 1.16632L0.638748 1.17882C0.506102 1.49735 0.463006 1.84608 0.514116 2.18732C0.565225 2.52857 0.708598 2.84937 0.928748 3.11507L0.926248 3.11132C1.37958 3.71548 1.72708 4.19048 1.96875 4.53632C2.14958 4.77882 2.33625 5.0309 2.52875 5.29257C2.705 5.52757 2.86125 5.79632 2.9875 6.08007L2.9975 6.10632C3.0675 6.25507 3.12875 6.43257 3.17375 6.61507L3.1775 6.63507C3.2175 6.80673 3.26791 6.9934 3.32875 7.19507C3.50958 7.6584 3.68083 8.1334 3.8425 8.62007C4.01875 9.15132 4.21375 9.60132 4.44 10.0301L4.41625 9.98007C4.53708 10.2017 4.65833 10.4184 4.78 10.6301C4.90166 10.8417 5.0325 11.0484 5.1725 11.2501C5.25189 11.3699 5.35429 11.4727 5.47375 11.5526L5.4775 11.5551C5.5401 11.6 5.59165 11.6585 5.62825 11.7263C5.66485 11.7941 5.68554 11.8693 5.68875 11.9463C5.54127 12.1654 5.44827 12.4178 5.4175 12.6801L5.41625 12.6876C5.37703 12.982 5.31305 13.2726 5.225 13.5563L5.235 13.5188C4.94096 14.4191 4.79283 15.3605 4.79625 16.3076C4.79625 16.6301 4.8125 16.9476 4.84625 17.2613L4.8425 17.2226C4.9175 18.4201 5.27875 19.5201 5.8575 20.4726L5.84 20.4413C6.08625 20.8101 6.35 21.1313 6.64125 21.4251C6.81045 21.6154 7.03838 21.7437 7.28886 21.7897C7.53933 21.8357 7.79799 21.7966 8.02375 21.6788L8.0175 21.6813C8.23411 21.605 8.42311 21.4659 8.56044 21.2818C8.69778 21.0977 8.77726 20.8769 8.78875 20.6476V20.6451C8.84875 20.0526 8.93875 19.5226 9.0625 19.0051L9.04625 19.0888C9.07792 19.0045 9.09402 18.9151 9.09375 18.8251L9.09125 18.7688V18.7713C9.08125 18.6805 9.13666 18.5946 9.2575 18.5138V18.5738C9.37833 18.8563 9.50416 19.1384 9.635 19.4201C9.76583 19.7017 9.90166 19.9838 10.0425 20.2663C10.4112 20.8276 10.8025 21.3176 11.2325 21.7688L11.2287 21.7651C11.6565 22.227 12.1283 22.6461 12.6375 23.0163L12.665 23.0351C12.93 23.2376 13.1625 23.4563 13.3725 23.6951L13.3775 23.7001C13.575 23.9326 13.8112 24.1238 14.0775 24.2676L14.09 24.2738V24.2438H14.15C14.1026 24.1377 14.0241 24.0483 13.925 23.9876L13.9225 23.9863C13.8308 23.9358 13.7427 23.879 13.6587 23.8163L13.665 23.8201C13.4842 23.6392 13.2975 23.4376 13.105 23.2151C12.9125 22.9926 12.7362 22.7809 12.5762 22.5801C12.1529 21.9951 11.7492 21.3838 11.365 20.7463C10.9808 20.1088 10.6179 19.4609 10.2762 18.8026C10.1146 18.4801 9.95833 18.1476 9.8075 17.8051C9.65666 17.4626 9.51041 17.1301 9.36875 16.8076C9.30462 16.6765 9.264 16.5352 9.24875 16.3901V16.3838C9.24537 16.3152 9.22425 16.2485 9.18745 16.1905C9.15064 16.1324 9.09941 16.0849 9.03875 16.0526L9.03625 16.0513C8.89314 16.2973 8.722 16.5259 8.52625 16.7326L8.5275 16.7313C8.32674 16.9429 8.16507 17.1883 8.05 17.4563L8.04375 17.4726C7.85664 17.9342 7.73505 18.4197 7.6825 18.9151L7.68 18.9388C7.62 19.473 7.55958 20.0221 7.49875 20.5863L7.43875 20.6163L7.40875 20.6463C7.25227 20.6149 7.10481 20.5489 6.97719 20.4531C6.84957 20.3573 6.74503 20.2341 6.67125 20.0926L6.66875 20.0863C6.51708 19.7938 6.38125 19.5063 6.26125 19.2238C5.9338 18.3671 5.75498 17.4607 5.7325 16.5438V16.5326C5.66758 15.5528 5.78888 14.5696 6.09 13.6351L6.075 13.6901C6.135 13.4684 6.26583 13.0951 6.4675 12.5701C6.66916 12.0451 6.70958 11.6821 6.58875 11.4813C6.52913 11.2825 6.41425 11.1048 6.2575 10.9688L6.25625 10.9676C6.10684 10.8382 5.9669 10.6982 5.8375 10.5488L5.83375 10.5438C5.69291 10.3405 5.55708 10.1238 5.42625 9.89382C5.29541 9.66382 5.17958 9.43715 5.07875 9.21381C4.84599 8.66304 4.64809 8.09818 4.48625 7.52257L4.45875 7.41131C4.28089 6.76813 4.05269 6.13994 3.77625 5.53257L3.80875 5.61257C3.67942 5.31575 3.51581 5.0351 3.32125 4.77632L3.32875 4.78632C3.12541 4.51465 2.94375 4.25757 2.78375 4.01507C2.58041 3.7534 2.37875 3.50132 2.17875 3.25882C1.97034 3.00639 1.79166 2.73083 1.64625 2.43757L1.635 2.41257C1.57104 2.28198 1.52118 2.14496 1.48625 2.00382L1.48375 1.99007C1.46227 1.91905 1.45663 1.8442 1.46721 1.77077C1.47779 1.69734 1.50435 1.62712 1.545 1.56507L1.54375 1.56757C1.55711 1.49997 1.58866 1.43731 1.635 1.38632C1.68561 1.34108 1.74727 1.31003 1.81375 1.29632H1.81625C1.91487 1.23235 2.02825 1.19475 2.14554 1.18709C2.26284 1.17943 2.38015 1.20197 2.48625 1.25257L2.4825 1.25132C2.75625 1.32882 2.9775 1.40632 3.19375 1.49507L3.14875 1.47882C3.53125 1.64048 3.88416 1.79673 4.2075 1.94757C4.58 2.12507 4.8975 2.31257 5.1975 2.52132L5.175 2.50632C5.33666 2.60715 5.49791 2.71798 5.65875 2.83882C5.81958 2.95965 5.99083 3.0809 6.1725 3.20257H6.59625C6.91875 3.20257 7.26125 3.21798 7.62375 3.24882C7.99 3.27757 8.32875 3.34632 8.65125 3.45382L8.62125 3.44507C9.2225 3.62382 9.73875 3.83507 10.2287 4.08882L10.1775 4.06507C10.6717 4.31673 11.1404 4.58382 11.5837 4.86632C12.32 5.32507 12.9562 5.79507 13.555 6.30882L13.5337 6.29132C14.1587 6.82632 14.7262 7.37507 15.2587 7.95507L15.2712 7.97007C15.7912 8.53757 16.2875 9.15382 16.7412 9.80007L16.78 9.85882C17.1975 10.4488 17.6187 11.1313 17.9975 11.8388L18.05 11.9451C18.1616 12.162 18.2593 12.3858 18.3425 12.6151L18.3562 12.6563C18.4371 12.888 18.5275 13.1255 18.6275 13.3688C18.8492 13.873 19.0867 14.3817 19.34 14.8951C19.5933 15.4084 19.8308 15.9076 20.0525 16.3926L20.7175 17.8438C20.9512 18.3513 21.2125 18.7888 21.5162 19.1926L21.5025 19.1738C21.7562 19.4451 22.095 19.6351 22.475 19.7013L22.485 19.7026C22.945 19.8176 23.3325 19.9476 23.7075 20.1013L23.6487 20.0801C23.8275 20.1613 24.0575 20.2476 24.2937 20.3238L24.3438 20.3376C24.6087 20.4188 24.8387 20.5263 25.05 20.6613L25.0387 20.6551C25.4475 20.8838 25.7937 21.1088 26.1237 21.3538L26.0975 21.3351C26.44 21.5867 26.7825 21.8242 27.125 22.0476C27.2867 22.1684 27.5579 22.3447 27.9387 22.5763C28.3196 22.808 28.5212 23.0246 28.5437 23.2263C27.7779 23.1998 27.0112 23.2361 26.2512 23.3351L26.3212 23.3276C25.6866 23.41 25.0652 23.5738 24.4725 23.8151L24.5225 23.7976C24.3654 23.8642 24.2032 23.9181 24.0375 23.9588L24.0138 23.9638C23.9277 23.9762 23.8482 24.017 23.7879 24.0797C23.7277 24.1425 23.6901 24.2235 23.6812 24.3101C23.7575 24.4051 23.8187 24.5163 23.86 24.6363L23.8625 24.6438C23.905 24.7713 23.9562 24.8813 24.0187 24.9838L24.015 24.9763C24.1637 25.2401 24.3237 25.4676 24.5037 25.6776L24.4987 25.6713C24.675 25.8888 24.8737 26.0776 25.0937 26.2388L25.1025 26.2451C25.3058 26.4067 25.5175 26.573 25.7375 26.7438C25.9387 26.9013 26.1662 27.0563 26.4025 27.1963L26.4325 27.2126C26.7875 27.4301 27.2 27.6376 27.63 27.8113L27.6875 27.8313C28.155 28.0188 28.5562 28.2363 28.9287 28.4951L28.9087 28.4813C29.1512 28.6221 29.3929 28.7784 29.6337 28.9501C29.8746 29.1217 30.1062 29.288 30.3288 29.4488C30.42 29.5388 30.5 29.6388 30.5675 29.7476L30.5712 29.7538C30.6865 29.8868 30.8467 29.9727 31.0212 29.9951H31.025V29.9351C30.9145 29.8514 30.8338 29.7344 30.795 29.6013L30.7937 29.5963C30.7651 29.476 30.7179 29.3608 30.6537 29.2551L30.6562 29.2601L30.6612 29.2651ZM7.44125 5.25881C7.27958 5.25881 7.12833 5.26381 6.9875 5.27382C6.8501 5.28265 6.7144 5.30912 6.58375 5.35257L6.595 5.34881V5.37882H6.655C6.73583 5.49965 6.8375 5.63548 6.96 5.78632C7.0825 5.93715 7.19333 6.0834 7.2925 6.22507L7.77625 7.22257L7.83625 7.19257C7.97702 7.09123 8.08623 6.95212 8.15125 6.79132L8.15375 6.78507C8.21875 6.61132 8.25625 6.40882 8.25625 6.19882L8.255 6.13132V6.13507C8.19832 6.07994 8.15252 6.01464 8.12 5.94257L8.11875 5.93882L8.0175 5.71132C7.95266 5.60777 7.85995 5.52459 7.75 5.47132L7.74625 5.47007C7.63393 5.41643 7.53095 5.34511 7.44125 5.25881Z" fill="#008573"/>
</g>
<defs>
<clipPath id="clip0_2174_219">
<rect width="30" height="30" fill="white" transform="translate(0.5)"/>
</clipPath>
</defs>
</svg>
