<svg width="31" height="30" viewBox="0 0 31 30" fill="none" xmlns="http://www.w3.org/2000/svg">
<path d="M15.5 7.5C12.1625 7.5 10.0875 9.1625 9.25 12.5C10.5 10.8375 11.9625 10.2125 13.625 10.625C14.575 10.8625 15.2625 11.55 16.0125 12.3125C17.2375 13.5625 18.625 15 21.75 15C25.0875 15 27.1625 13.3375 28 10C26.75 11.6625 25.2875 12.2875 23.625 11.875C22.675 11.6375 22 10.95 21.2375 10.1875C20.0125 8.9375 18.625 7.5 15.5 7.5ZM9.25 15C5.9125 15 3.8375 16.6625 3 20C4.25 18.3375 5.7125 17.7125 7.375 18.125C8.325 18.3625 9 19.05 9.7625 19.8125C10.9875 21.0625 12.375 22.5 15.5 22.5C18.8375 22.5 20.9125 20.8375 21.75 17.5C20.5 19.1625 19.0375 19.7875 17.375 19.375C16.425 19.1375 15.75 18.45 14.9875 17.6875C13.7625 16.4375 12.375 15 9.25 15Z" fill="#008573"/>
</svg>
