<svg width="31" height="30" viewBox="0 0 31 30" fill="none" xmlns="http://www.w3.org/2000/svg">
<g clip-path="url(#clip0_2174_186)">
<path d="M5.93417 2H1.50017C1.32422 1.99995 1.15137 2.04632 0.999069 2.13444C0.846771 2.22256 0.720419 2.3493 0.632772 2.50188C0.545125 2.65445 0.499286 2.82744 0.499884 3.00339C0.500481 3.17935 0.547494 3.35203 0.636174 3.504L14.6362 27.504C14.7242 27.6551 14.8503 27.7804 15.0019 27.8675C15.1535 27.9547 15.3253 28.0005 15.5002 28.0005C15.675 28.0005 15.8468 27.9547 15.9984 27.8675C16.15 27.7804 16.2761 27.6551 16.3642 27.504L30.3642 3.504C30.4529 3.35203 30.4999 3.17935 30.5005 3.00339C30.5011 2.82744 30.4552 2.65445 30.3676 2.50188C30.2799 2.3493 30.1536 2.22256 30.0013 2.13444C29.849 2.04632 29.6761 1.99995 29.5002 2H25.0662L15.5002 17.944L5.93417 2Z" fill="#0D3D38"/>
<path d="M22.734 2H16.88L15.5 4.764L14.118 2H8.26599L15.5 14.056L22.734 2Z" fill="#0D3D38"/>
</g>
<defs>
<clipPath id="clip0_2174_186">
<rect width="30" height="30" fill="white" transform="translate(0.5)"/>
</clipPath>
</defs>
</svg>
