<svg width="31" height="30" viewBox="0 0 31 30" fill="none" xmlns="http://www.w3.org/2000/svg">
<g clip-path="url(#clip0_2174_200)">
<mask id="mask0_2174_200" style="mask-type:luminance" maskUnits="userSpaceOnUse" x="0" y="0" width="31" height="30">
<path d="M0.5 0H30.5V30H0.5V0Z" fill="white"/>
</mask>
<g mask="url(#mask0_2174_200)">
<path fill-rule="evenodd" clip-rule="evenodd" d="M0.5 0H30.5V30H0.5V0ZM23.4338 25.15C22.0425 25.15 21.2563 24.425 20.6525 23.4375L18.3612 24.7688C19.1887 26.4038 20.88 27.6513 23.4988 27.6513C26.1763 27.6513 28.17 26.2613 28.17 23.7225C28.17 21.3688 26.8175 20.3225 24.4225 19.2938L23.7175 18.9925C22.5075 18.4675 21.9837 18.1263 21.9837 17.28C21.9837 16.5963 22.5088 16.0725 23.3337 16.0725C24.1425 16.0725 24.6637 16.4137 25.1475 17.28L27.3425 15.8712C26.4138 14.2375 25.1263 13.6137 23.3337 13.6137C20.8162 13.6137 19.205 15.2238 19.205 17.3388C19.205 19.6325 20.555 20.7188 22.59 21.585L23.295 21.8875C24.5812 22.45 25.3475 22.7925 25.3475 23.7588C25.3475 24.5662 24.6012 25.15 23.4338 25.15ZM12.5088 25.1312C11.54 25.1312 11.1362 24.4688 10.6937 23.6812L8.39875 25.0712C9.06375 26.4787 10.3712 27.6463 12.6275 27.6463C15.1262 27.6463 16.8375 26.3175 16.8375 23.3988V13.7738H14.0187V23.3612C14.0187 24.77 13.4338 25.1312 12.5075 25.1312" fill="#008573"/>
</g>
</g>
<defs>
<clipPath id="clip0_2174_200">
<rect width="30" height="30" fill="white" transform="translate(0.5)"/>
</clipPath>
</defs>
</svg>
