<svg width="31" height="30" viewBox="0 0 31 30" fill="none" xmlns="http://www.w3.org/2000/svg">
<path fill-rule="evenodd" clip-rule="evenodd" d="M15.5 2.5C8.6075 2.5 3 8.1075 3 15C3 21.8925 8.6075 27.5 15.5 27.5C22.3925 27.5 28 21.8925 28 15C28 8.1075 22.3925 2.5 15.5 2.5ZM15.5 26.9275C8.92375 26.9275 3.57375 21.5763 3.57375 15C3.57375 8.42375 8.92375 3.0725 15.5 3.0725C22.0763 3.0725 27.4275 8.4225 27.4275 15C27.4275 21.575 22.0775 26.9275 15.5 26.9275ZM4.7775 15C4.77725 17.0137 5.34398 18.9868 6.41282 20.6934C7.48167 22.4 9.00944 23.7712 10.8212 24.65L5.705 10.6375C5.0923 12.0102 4.77624 13.4968 4.7775 15ZM22.74 14.46C22.74 13.135 22.2625 12.2175 21.855 11.5025C21.3112 10.6187 20.8012 9.87125 20.8012 8.9875C20.8012 8.0025 21.5487 7.085 22.6012 7.085C22.65 7.085 22.695 7.09 22.7412 7.09375C20.7669 5.27857 18.182 4.27238 15.5 4.275C13.7227 4.27411 11.9732 4.71548 10.409 5.55932C8.84484 6.40316 7.51523 7.62295 6.54 9.10875C6.7925 9.11625 7.03 9.12125 7.23125 9.12125C8.3525 9.12125 10.0887 8.985 10.0887 8.985C10.6663 8.95125 10.735 9.8 10.1575 9.86875C10.1575 9.86875 9.57625 9.9375 8.93 9.97125L12.835 21.5862L15.1812 14.5487L13.5113 9.97125C12.9338 9.9375 12.3862 9.86875 12.3862 9.86875C11.8088 9.835 11.8763 8.95125 12.455 8.985C12.455 8.985 14.225 9.1225 15.2787 9.1225C16.4 9.1225 18.1363 8.985 18.1363 8.985C18.715 8.95125 18.7825 9.8 18.205 9.86875C18.205 9.86875 17.6238 9.9375 16.9775 9.97125L20.8525 21.4975L21.9237 17.9237C22.3862 16.44 22.7388 15.375 22.7388 14.4575M15.6888 15.9362L12.4712 25.2863C14.6313 25.9234 16.9372 25.8634 19.0613 25.115C19.0312 25.0677 19.0053 25.0179 18.9837 24.9662L15.6888 15.9362ZM24.91 9.85375C24.9562 10.1962 24.9825 10.5625 24.9825 10.9563C24.9825 12.0438 24.7788 13.2675 24.1663 14.7975L20.8913 24.2675C22.5133 23.3246 23.8594 21.9723 24.795 20.346C25.7306 18.7197 26.2228 16.8762 26.2225 15C26.2255 13.2018 25.774 11.4308 24.91 9.85375Z" fill="#0D3D38"/>
</svg>
