<svg width="33" height="32" viewBox="0 0 33 32" fill="none" xmlns="http://www.w3.org/2000/svg">
<path d="M6.5 30H26.5V25C26.4979 23.1441 25.7597 21.3649 24.4474 20.0526C23.1351 18.7403 21.3559 18.0021 19.5 18H13.5C11.6441 18.0021 9.86489 18.7403 8.55259 20.0526C7.2403 21.3649 6.50212 23.1441 6.5 25V30ZM9.5 9C9.5 10.3845 9.91054 11.7378 10.6797 12.889C11.4489 14.0401 12.5421 14.9373 13.8212 15.4672C15.1003 15.997 16.5078 16.1356 17.8656 15.8655C19.2235 15.5954 20.4708 14.9287 21.4497 13.9497C22.4287 12.9708 23.0954 11.7235 23.3655 10.3656C23.6356 9.00776 23.497 7.6003 22.9672 6.32122C22.4373 5.04213 21.5401 3.94888 20.389 3.17971C19.2378 2.41054 17.8845 2 16.5 2C14.6435 2 12.863 2.7375 11.5503 4.05025C10.2375 5.36301 9.5 7.14348 9.5 9Z" fill="#008573"/>
</svg>
