<svg width="31" height="30" viewBox="0 0 31 30" fill="none" xmlns="http://www.w3.org/2000/svg">
<g clip-path="url(#clip0_2174_210)">
<path d="M15.5 29.9799C23.7843 29.9799 30.5 23.2903 30.5 15.0383C30.5 6.78628 23.7843 0.0966797 15.5 0.0966797C7.21573 0.0966797 0.5 6.78628 0.5 15.0383C0.5 23.2903 7.21573 29.9799 15.5 29.9799Z" fill="#0D3D38"/>
<path d="M22.0281 5.61776C20.5063 5.67064 19.1781 6.50608 18.1893 7.66173C17.0946 8.92885 16.3663 10.4318 15.8415 11.9659C14.9028 11.1995 14.1786 10.2074 12.6726 9.7748C11.5086 9.44188 10.286 9.57939 9.16169 10.4138C8.62907 10.8101 8.26216 11.4092 8.08767 11.9723C7.63591 13.4357 8.56263 14.7381 8.98357 15.2057L9.90384 16.1881C10.0936 16.3808 10.5505 16.8833 10.3271 17.6037C10.0857 18.387 9.13767 18.8942 8.16525 18.5954C7.73095 18.4635 7.10704 18.1412 7.24673 17.6873C7.3045 17.5017 7.43786 17.3628 7.50935 17.2023C7.57497 17.0645 7.60626 16.961 7.62618 16.9003C7.80384 16.3225 7.56114 15.5708 6.93982 15.3799C6.36021 15.2029 5.76712 15.3431 5.5372 16.0866C5.27646 16.9311 5.68216 18.4639 7.85552 19.1314C10.4019 19.9107 12.5559 18.5297 12.8614 16.7284C13.0538 15.6002 12.5424 14.762 11.6055 13.684L10.8422 12.8431C10.3797 12.3829 10.2209 11.5986 10.6995 10.9958C11.1034 10.4873 11.6785 10.2703 12.6205 10.5255C13.9954 10.8974 14.6083 11.8477 15.631 12.6142C15.2088 13.9938 14.9328 15.3786 14.683 16.6204L14.5308 17.5462C13.7997 21.3658 13.2417 23.4631 11.7915 24.6672C11.4993 24.8741 11.0817 25.1839 10.4522 25.2055C10.1222 25.2157 10.0155 24.9896 10.0109 24.8911C10.0031 24.6603 10.1983 24.5545 10.3281 24.4506C10.5219 24.3453 10.815 24.1707 10.7951 23.6112C10.774 22.9501 10.2241 22.3768 9.42935 22.403C8.83404 22.4232 7.92665 22.9813 7.96075 24.0029C7.99626 25.058 8.98357 25.8487 10.4721 25.7987C11.2678 25.7715 13.0446 25.4488 14.7957 23.3753C16.8338 20.9984 17.4038 18.2736 17.8326 16.2792L18.3112 13.6462C18.5771 13.678 18.8614 13.6991 19.1707 13.7064C21.7091 13.7598 22.9788 12.4501 22.9977 11.4974C23.0102 10.9209 22.6179 10.3536 22.0686 10.3664C21.6754 10.3775 21.1815 10.6381 21.0629 11.1798C20.9471 11.7111 21.8707 12.1907 21.1488 12.6564C20.636 12.987 19.7167 13.22 18.422 13.0307L18.6574 11.7346C19.1379 9.27682 19.7305 6.25359 21.9786 6.18005C22.1424 6.17177 22.742 6.18741 22.7559 6.58231C22.76 6.71422 22.7272 6.74784 22.5722 7.04982C22.4143 7.28527 22.3548 7.4857 22.3622 7.71601C22.3838 8.34355 22.8629 8.75597 23.5557 8.7311C24.4834 8.70122 24.7502 7.80157 24.735 7.33955C24.6975 6.25394 23.5489 5.56815 22.0281 5.61776Z" fill="#F3FBF9"/>
</g>
<defs>
<clipPath id="clip0_2174_210">
<rect width="30" height="30" fill="white" transform="translate(0.5)"/>
</clipPath>
</defs>
</svg>
