<svg width="31" height="30" viewBox="0 0 31 30" fill="none" xmlns="http://www.w3.org/2000/svg">
<path d="M27.7625 12.8126C27.6875 12.7626 27.0625 12.2751 25.7125 12.2751C25.3625 12.2751 25.0125 12.3126 24.6625 12.3751C24.4 10.6251 22.9375 9.7376 22.875 9.7001L22.5125 9.4876L22.2875 9.8251C21.9875 10.2751 21.75 10.7876 21.65 11.3126C21.4 12.3126 21.55 13.2626 22.0625 14.0751C21.45 14.4251 20.45 14.5126 20.2375 14.5126H3.775C3.35 14.5126 3 14.8626 3 15.3001C3 16.7376 3.225 18.1751 3.725 19.5251C4.2875 21.0126 5.1375 22.1126 6.225 22.7876C7.45 23.5376 9.4625 23.9626 11.75 23.9626C12.7375 23.9626 13.7625 23.8751 14.775 23.6876C16.175 23.4376 17.525 22.9501 18.7625 22.2376C19.7874 21.6515 20.7047 20.8948 21.475 20.0001C22.7875 18.5376 23.5625 16.8751 24.125 15.4376H24.3625C25.7875 15.4376 26.675 14.8626 27.1625 14.3751C27.4875 14.0751 27.725 13.7126 27.9 13.2876L28 12.9876L27.7625 12.8126ZM5.3125 14.0501H7.5125C7.6125 14.0501 7.7125 13.9626 7.7125 13.8501V11.8751C7.7125 11.7751 7.625 11.6751 7.5125 11.6751H5.3125C5.2 11.6751 5.1125 11.7626 5.1125 11.8751V13.8501C5.125 13.9626 5.2 14.0501 5.3125 14.0501ZM8.35 14.0501H10.55C10.65 14.0501 10.75 13.9626 10.75 13.8501V11.8751C10.75 11.7751 10.6625 11.6751 10.55 11.6751H8.35C8.2375 11.6751 8.15 11.7626 8.15 11.8751V13.8501C8.1625 13.9626 8.2375 14.0501 8.35 14.0501ZM11.4375 14.0501H13.625C13.75 14.0501 13.8375 13.9626 13.8375 13.8501V11.8751C13.8375 11.7751 13.7625 11.6751 13.625 11.6751H11.4375C11.3375 11.6751 11.25 11.7626 11.25 11.8751V13.8501C11.25 13.9626 11.325 14.0501 11.4375 14.0501ZM14.4875 14.0501H16.7C16.8 14.0501 16.8875 13.9626 16.8875 13.8501V11.8751C16.8875 11.7751 16.8125 11.6751 16.7 11.6751H14.4875C14.3875 11.6751 14.3 11.7626 14.3 11.8751V13.8501C14.3 13.9626 14.3875 14.0501 14.4875 14.0501ZM8.35 11.2501H10.55C10.65 11.2501 10.75 11.1376 10.75 11.0251V9.0626C10.75 8.9501 10.6625 8.8626 10.55 8.8626H8.35C8.2375 8.8626 8.15 8.9376 8.15 9.0626V11.0251C8.1625 11.1376 8.2375 11.2501 8.35 11.2501ZM11.4375 11.2501H13.625C13.75 11.2501 13.8375 11.1376 13.8375 11.0251V9.0626C13.8375 8.9501 13.7625 8.8626 13.625 8.8626H11.4375C11.3375 8.8626 11.25 8.9376 11.25 9.0626V11.0251C11.25 11.1376 11.325 11.2501 11.4375 11.2501ZM14.4875 11.2501H16.7C16.8 11.2501 16.8875 11.1376 16.8875 11.0251V9.0626C16.8875 8.9501 16.8 8.8626 16.7 8.8626H14.4875C14.3875 8.8626 14.3 8.9376 14.3 9.0626V11.0251C14.3 11.1376 14.3875 11.2501 14.4875 11.2501ZM14.4875 8.4001H16.7C16.8 8.4001 16.8875 8.3126 16.8875 8.2001V6.2501C16.8875 6.1251 16.8 6.0376 16.7 6.0376H14.4875C14.3875 6.0376 14.3 6.1126 14.3 6.2501V8.2001C14.3 8.3001 14.3875 8.4001 14.4875 8.4001ZM17.5625 14.0501H19.7625C19.875 14.0501 19.9625 13.9626 19.9625 13.8501V11.8751C19.9625 11.7751 19.875 11.6751 19.7625 11.6751H17.5625C17.4625 11.6751 17.375 11.7626 17.375 11.8751V13.8501C17.375 13.9626 17.4625 14.0501 17.5625 14.0501Z" fill="#008573"/>
</svg>
